# xmcd
#
# Track frame offsets: 
#        150
#        11592
#        21246
#        35081
#        44248
#        56912
#        68666
#        81561
#        92814
#        101312
#        112858
#        124983
#
# Disc length: 1809 seconds
#
# Revision: 2
# Processed by: cddbd v1.5.2PL0 Copyright (c) Steve Scherf et al.
# Submitted via: ExactAudioCopy v0.99pb4
#
DISCID=a6070f0c
DTITLE=Various Artist - Preem Christmas Classics
DYEAR=2008
DGENRE=Christmas
TTITLE0=Gene Autry - Here Comes Santa Claus
TTITLE1=Elvis Presley - Blue Christmas
TTITLE2=Bing Crosby - White Christmas
TTITLE3=Frank Sinatra - Jingle Bells
TTITLE4=Eartha Kitt - Santa Baby
TTITLE5=Frank Sinatra - Let it Snow, Let it Snow, Let it Snow
TTITLE6=Louis Armstrong - 'Zat You Santa Claus?
TTITLE7=Perry Como - Winter Wonderland
TTITLE8=Elvis Presley - Santa Bring My Baby Back
TTITLE9=Frank Sinatra - Santa Claus is Coming to Town
TTITLE10=Kay Starr - The Man With The Bag
TTITLE11=Elvis Presley - Silent Night
EXTD=
EXTT0=
EXTT1=
EXTT2=
EXTT3=
EXTT4=
EXTT5=
EXTT6=
EXTT7=
EXTT8=
EXTT9=
EXTT10=
EXTT11=
PLAYORDER=
